<svg xmlns="http://www.w3.org/2000/svg" width="514" height="186.68" viewBox="0 0 514 186.68">
  <g id="Cash_icon" data-name="Cash icon" transform="translate(-9905 -1651)">
    <g id="payment-cashondelivery" transform="translate(9905 1629.332)">
      <path id="Path_232" data-name="Path 232" d="M71.486,172.186a9.088,9.088,0,0,0,4.254,11.535c32.36,16.371,71.29,45.755,86.211,45.755.773.059,1.546.084,2.318.084,6.752,0,13.423-2.085,19.895-4.105,7.1-2.22,14.443-4.513,21.718-3.971l18.021,1.343V167.513l-9.824-.733c-6.086-.461-11.206,1.537-16.135,3.47-4.614,1.807-8.967,3.507-13.971,3.17L151.8,168.51c-11.546-1.664-17.9,3.923-21.769,9.043L81.923,166.709a9.132,9.132,0,0,0-10.436,5.477Z" transform="translate(-9.189 -22.884)" fill="#eec6b3"/>
      <path id="Path_233" data-name="Path 233" d="M184.971,196.464c-18.1,2.571-39.851-4.49-53.151-12.5a4.862,4.862,0,0,1-1.8-6.412h0C132.337,184.274,165.751,193.213,184.971,196.464Z" transform="translate(-6.027 -18.764)" fill="#cd957b"/>
      <path id="Path_234" data-name="Path 234" d="M75.912,177.036c33.492,16.371,73.785,45.755,89.226,45.755.8.059,1.6.084,2.4.084,6.988,0,13.893-2.085,20.592-4.105,7.351-2.22,14.949-4.513,22.477-3.971l13.294.958v7.073l-18.021-1.343c-7.275-.542-14.615,1.751-21.719,3.971-6.471,2.02-13.142,4.105-19.895,4.105-.77,0-1.546-.028-2.318-.084-14.921,0-53.848-29.384-86.211-45.755a9.08,9.08,0,0,1-4.274-11.462A9.066,9.066,0,0,0,75.912,177.036Z" transform="translate(-9.189 -22.884)" fill="#cd957b"/>
      <path id="Path_235" data-name="Path 235" d="M220.326,231.232h26.925a5.648,5.648,0,0,0,5.648-5.645V158.824a5.648,5.648,0,0,0-5.648-5.648H220.326a5.648,5.648,0,0,0-5.648,5.648v66.763A5.65,5.65,0,0,0,220.326,231.232Z" transform="translate(-9.189 -22.884)" fill="#343936"/>
      <path id="Path_236" data-name="Path 236" d="M220.326,153.176H223.1a5.875,5.875,0,0,0-.065.632v66.763a5.645,5.645,0,0,0,5.645,5.645h24.152a5.627,5.627,0,0,1-5.583,5.016H220.326a5.645,5.645,0,0,1-5.645-5.645V158.824A5.646,5.646,0,0,1,220.326,153.176Z" transform="translate(-9.189 -22.884)" fill="#2e322f"/>
      <path id="Path_237" data-name="Path 237" d="M122.873,75.347,170.98,86.191a9.128,9.128,0,0,0,10.431-5.477h0a9.088,9.088,0,0,0-4.254-11.535C144.8,52.808,105.87,23.424,90.948,23.424c-.773-.059-1.546-.084-2.318-.084-6.752,0-13.423,2.085-19.895,4.105-7.1,2.22-14.443,4.513-21.718,3.971L29,30.073v44.39A210.429,210.429,0,0,1,122.873,75.347Z" fill="#eec6b3"/>
      <path id="Path_238" data-name="Path 238" d="M176.988,75.864C143.5,59.493,103.2,30.109,87.762,30.109c-.8-.059-1.6-.084-2.4-.084-6.988,0-13.893,2.085-20.592,4.105C57.42,36.35,49.821,38.643,42.293,38.1L29,37.143V30.07L47.02,31.413c7.275.542,14.615-1.751,21.718-3.971,6.471-2.02,13.142-4.105,19.895-4.105.77,0,1.546.028,2.318.084,14.921,0,53.848,29.384,86.211,45.755a9.08,9.08,0,0,1,4.274,11.462A9.066,9.066,0,0,0,176.988,75.864Z" fill="#cd957b"/>
      <path id="Path_239" data-name="Path 239" d="M193.244,111.723,70.961,134.571a4.153,4.153,0,0,1-4.844-3.319L55.107,72.335a4.153,4.153,0,0,1,3.319-4.844L180.708,44.64a4.153,4.153,0,0,1,4.844,3.319l11.01,58.917A4.154,4.154,0,0,1,193.244,111.723Z" transform="translate(-4.544)" fill="#318b36"/>
      <path id="Path_240" data-name="Path 240" d="M168.625,52.671,72.613,70.612A12.362,12.362,0,0,1,62.73,85.036l5.921,31.691a12.362,12.362,0,0,1,14.424,9.883l96.012-17.942c-.025-.121-.065-.236-.087-.36a12.362,12.362,0,0,1,9.883-14.424l-5.921-31.691A12.355,12.355,0,0,1,168.625,52.671Z" transform="translate(-4.548)" fill="#3b9e41"/>
      <circle id="Ellipse_134" data-name="Ellipse 134" cx="3.097" cy="3.097" r="3.097" transform="translate(58.679 66.454)" fill="#3b9e41"/>
      <circle id="Ellipse_135" data-name="Ellipse 135" cx="3.097" cy="3.097" r="3.097" transform="translate(67.688 110.869)" fill="#3b9e41"/>
      <circle id="Ellipse_136" data-name="Ellipse 136" cx="3.097" cy="3.097" r="3.097" transform="translate(168.651 50.861)" fill="#3b9e41"/>
      <circle id="Ellipse_137" data-name="Ellipse 137" cx="3.097" cy="3.097" r="3.097" transform="translate(177.659 91.991)" fill="#3b9e41"/>
      <circle id="Ellipse_138" data-name="Ellipse 138" cx="24.329" cy="24.329" r="24.329" transform="translate(96.931 59.074)" fill="#318b36"/>
      <path id="Path_241" data-name="Path 241" d="M134.338,90.471c-1.843-2.526-5.364-3.195-8.225-3.5-3.434-.362-4.291-1.068-4.5-1.354a1.247,1.247,0,0,1-.07-.936,3.82,3.82,0,0,1,3.105-2.484,4.342,4.342,0,0,1,3.026.483,1.749,1.749,0,0,0,1.911-.079l1.492-1.034a1.8,1.8,0,0,0,.115-2.883,9.1,9.1,0,0,0-5.243-1.846l-.36-1.922a1.8,1.8,0,0,0-2.1-1.439l-1.669.312a1.8,1.8,0,0,0-1.439,2.1l.4,2.13a8.575,8.575,0,0,0-4.406,5.5,6.358,6.358,0,0,0,.961,5.218c1.843,2.526,5.364,3.2,8.225,3.5,3.437.362,4.294,1.068,4.5,1.354a1.261,1.261,0,0,1,.07.936,3.82,3.82,0,0,1-3.105,2.484A4.342,4.342,0,0,1,124,96.535a1.749,1.749,0,0,0-1.911.079L120.6,97.647a1.81,1.81,0,0,0-.1,2.906,8.988,8.988,0,0,0,4.828,1.815l.374,2a1.8,1.8,0,0,0,2.1,1.439l1.669-.312a1.8,1.8,0,0,0,1.439-2.1l-.374-2a8.642,8.642,0,0,0,4.763-5.7A6.362,6.362,0,0,0,134.338,90.471Z" transform="translate(-4.57 -6.688)" fill="#3b9e41"/>
      <path id="Path_242" data-name="Path 242" d="M94.582,98.072,82.667,100.3a2.578,2.578,0,0,1-3.01-2.063h0a2.578,2.578,0,0,1,2.063-3.01L93.635,93a2.578,2.578,0,0,1,3.01,2.063h0A2.578,2.578,0,0,1,94.582,98.072Z" transform="translate(-3.102 -8.069)" fill="#318b36"/>
      <path id="Path_243" data-name="Path 243" d="M169.952,83.988l-11.914,2.226a2.578,2.578,0,0,1-3.01-2.063h0a2.578,2.578,0,0,1,2.063-3.01L169,78.916a2.578,2.578,0,0,1,3.01,2.063h0A2.58,2.58,0,0,1,169.952,83.988Z" transform="translate(-6.039 -6.475)" fill="#318b36"/>
      <path id="Path_244" data-name="Path 244" d="M119.835,98.269c-5.142,3.841-12.8,7.438-23.427,2.63L66.87,87.236c-4.712-1.717-9.369-1.3-14.3-.84-5.272.483-10.745.981-16.464-1.155L26.869,81.8l6.707-23.168C66.532,54.087,115.539,85.286,119.835,98.269Z" transform="translate(0 -5.079)" fill="#eec6b3"/>
      <path id="Path_245" data-name="Path 245" d="M72.315,64.824c18.1,2.563,37.033,15.4,47.579,26.788a4.865,4.865,0,0,1-.059,6.66h0C119.484,91.17,89.875,73.29,72.315,64.824Z" transform="translate(-3.257 -5.608)" fill="#cd957b"/>
      <path id="Path_246" data-name="Path 246" d="M32.574,21.668H5.648A5.648,5.648,0,0,0,0,27.316V94.079a5.648,5.648,0,0,0,5.648,5.648H32.574a5.648,5.648,0,0,0,5.648-5.648V27.316A5.65,5.65,0,0,0,32.574,21.668Z" fill="#343936"/>
      <path id="Path_247" data-name="Path 247" d="M32.574,99.724H29.8a5.874,5.874,0,0,0,.065-.632V32.329a5.645,5.645,0,0,0-5.645-5.645H.065a5.627,5.627,0,0,1,5.583-5.016H32.574a5.645,5.645,0,0,1,5.645,5.645V94.076A5.646,5.646,0,0,1,32.574,99.724Z" fill="#2e322f"/>
    </g>
    <text id="Cash" transform="translate(10159 1778)" font-size="97" font-family="Poppins-Bold, Poppins" font-weight="700"><tspan x="0" y="0">Cash</tspan></text>
  </g>
</svg>
