<svg xmlns="http://www.w3.org/2000/svg" width="557.18" height="241.154" viewBox="0 0 557.18 241.154">
  <g id="transfer_icon" data-name="transfer icon" transform="translate(-9916.82 -1257.296)">
    <g id="payment-moneytransfer" transform="translate(9865.445 1257.296)">
      <path id="Path_217" data-name="Path 217" d="M143.214,205.633H69.081a14.9,14.9,0,0,1-14.9-14.9V17.706a14.9,14.9,0,0,1,14.9-14.9h74.133a14.9,14.9,0,0,1,14.9,14.9V190.737A14.9,14.9,0,0,1,143.214,205.633Z" fill="#87ced9"/>
      <path id="Path_218" data-name="Path 218" d="M158.138,168.3l-10.8-7.612a8.425,8.425,0,0,0-3.535-1.416l-13.291-1.163a11.267,11.267,0,0,0-12.7,8.6l-.422,1.824a11.267,11.267,0,0,0,7.4,13.213l13.758,2.684a8.434,8.434,0,0,1,2.869,1.647l13.595,13.081a45.72,45.72,0,0,0-13.364,26.768h50.541c1.908-22.064,7.694-35.858,4.954-54.958a21.694,21.694,0,0,0-13.46-17.093l-25.537-11.628V168.3Z" transform="translate(-13.967 -11.746)" fill="#fec9a3"/>
      <rect id="Rectangle_887" data-name="Rectangle 887" width="64.49" height="25.037" transform="translate(120.689 214.178)" fill="#4398d1"/>
      <path id="Path_219" data-name="Path 219" d="M133.149,2.81h0a17.913,17.913,0,0,1-17.914,17.914H97.066A17.913,17.913,0,0,1,79.152,2.81h54Z" transform="translate(-4.035)" fill="#d9d9d9"/>
      <path id="Path_220" data-name="Path 220" d="M123.126,208.443H67a15.638,15.638,0,0,1-15.621-15.621V15.621A15.639,15.639,0,0,1,67,0H145.3a15.639,15.639,0,0,1,15.621,15.621V147.46a2.81,2.81,0,1,1-5.62,0V15.621a10.012,10.012,0,0,0-10-10H67a10.012,10.012,0,0,0-10,10v177.2a10.012,10.012,0,0,0,10,10h56.133a2.81,2.81,0,1,1,0,5.62Z"/>
      <path id="Path_221" data-name="Path 221" d="M141.773,228.1a2.543,2.543,0,0,1-.41-.031,2.809,2.809,0,0,1-2.374-3.187,48.959,48.959,0,0,1,12.024-26.06l-11.42-10.987a5.384,5.384,0,0,0-1.63-.936l-13.429-2.622a2.979,2.979,0,0,1-.354-.093A13.923,13.923,0,0,1,115,167.8l.416-1.807a14.021,14.021,0,0,1,15.744-10.672l12.985,1.13a11.384,11.384,0,0,1,4.861,1.894l25.127,17.706a2.811,2.811,0,1,1-3.24,4.594L145.78,162.949a5.57,5.57,0,0,0-2.313-.922l-12.982-1.13a8.451,8.451,0,0,0-9.6,6.359l-.416,1.807A8.319,8.319,0,0,0,125.8,178.8l13.437,2.622c.121.025.242.056.357.093a11.157,11.157,0,0,1,3.8,2.178l13.567,13.05a2.811,2.811,0,0,1-.017,4.069A42.678,42.678,0,0,0,144.544,225.7,2.8,2.8,0,0,1,141.773,228.1Z" transform="translate(-9.877 -11.746)"/>
      <path id="Path_222" data-name="Path 222" d="M191.842,228.1a2.411,2.411,0,0,1-.244-.011,2.807,2.807,0,0,1-2.557-3.04c.691-7.986,1.86-14.744,2.99-21.28,1.936-11.189,3.611-20.856,1.933-32.526a18.716,18.716,0,0,0-11.588-14.719l-6.508-2.939a2.81,2.81,0,1,1,2.315-5.12l6.384,2.886a24.285,24.285,0,0,1,14.96,19.091c1.8,12.555.059,22.626-1.961,34.285-1.113,6.421-2.262,13.058-2.931,20.805A2.8,2.8,0,0,1,191.842,228.1Z" transform="translate(-13.967 -11.746)"/>
      <path id="Path_223" data-name="Path 223" d="M198.715,252.9h-63.88a2.807,2.807,0,0,1-2.81-2.81v-24.8a2.807,2.807,0,0,1,2.81-2.81h63.877a2.807,2.807,0,0,1,2.81,2.81v24.8A2.8,2.8,0,0,1,198.715,252.9Zm-61.07-5.62H195.9V228.1H137.645Z" transform="translate(-13.967 -11.746)"/>
      <path id="Path_224" data-name="Path 224" d="M105.867,81.889a11.455,11.455,0,0,1-10.695-7.421,2.811,2.811,0,1,1,5.263-1.975,5.8,5.8,0,0,0,7.475,3.394,5.813,5.813,0,0,0,3.4-7.475,5.745,5.745,0,0,0-3.8-3.518l-4.479-1.635a11.219,11.219,0,0,1-7.3-6.882,11.425,11.425,0,0,1,21.4-8.023,2.811,2.811,0,1,1-5.263,1.975,5.806,5.806,0,1,0-7.07,7.6l4.479,1.635a11.214,11.214,0,0,1,7.3,6.879,11.446,11.446,0,0,1-10.7,15.447Z" transform="translate(-4.765 -2.269)"/>
      <path id="Path_225" data-name="Path 225" d="M106.148,46.576a2.811,2.811,0,0,1-2.81-2.81V38.949a2.81,2.81,0,1,1,5.62,0v4.816A2.809,2.809,0,0,1,106.148,46.576Z" transform="translate(-5.021)"/>
      <path id="Path_226" data-name="Path 226" d="M106.148,86.688a2.811,2.811,0,0,1-2.81-2.81V79.065a2.81,2.81,0,0,1,5.62,0v4.814A2.809,2.809,0,0,1,106.148,86.688Z" transform="translate(-5.021 -3.694)"/>
      <path id="Path_227" data-name="Path 227" d="M136.116,110.377H76.179a2.81,2.81,0,1,1,0-5.62h59.937a2.81,2.81,0,0,1,0,5.62Z" transform="translate(0 -4.976)"/>
      <path id="Path_228" data-name="Path 228" d="M124.241,122.255a2.81,2.81,0,0,1-1.987-4.8l9.891-9.891-9.891-9.894a2.81,2.81,0,0,1,3.973-3.973l11.878,11.881a2.807,2.807,0,0,1,0,3.973l-11.878,11.878A2.791,2.791,0,0,1,124.241,122.255Z" transform="translate(-7.376 -4.881)"/>
      <path id="Path_229" data-name="Path 229" d="M136.116,140.486H76.179a2.81,2.81,0,0,1,0-5.62h59.937a2.81,2.81,0,1,1,0,5.62Z" transform="translate(0 -6.406)"/>
      <path id="Path_230" data-name="Path 230" d="M88.057,152.367a2.8,2.8,0,0,1-1.987-.823L74.192,139.663a2.809,2.809,0,0,1,0-3.973L86.07,123.811a2.81,2.81,0,0,1,3.973,3.973l-9.891,9.891,9.891,9.894a2.81,2.81,0,0,1-1.987,4.8Z" transform="translate(0 -6.463)"/>
      <path id="Path_231" data-name="Path 231" d="M115.235,23.534H97.063A20.749,20.749,0,0,1,76.339,2.81a2.81,2.81,0,1,1,5.62,0,15.12,15.12,0,0,0,15.1,15.1h18.172a15.122,15.122,0,0,0,15.1-15.1,2.81,2.81,0,1,1,5.62,0A20.748,20.748,0,0,1,115.235,23.534Z" transform="translate(-3.851)"/>
    </g>
    <text id="Transfer" transform="translate(10053 1398)" font-size="97" font-family="Poppins-Bold, Poppins" font-weight="700"><tspan x="0" y="0">Transfer</tspan></text>
  </g>
</svg>
