<?xml version="1.0" standalone="no"?>
<!DOCTYPE svg PUBLIC "-//W3C//DTD SVG 20010904//EN"
 "http://www.w3.org/TR/2001/REC-SVG-20010904/DTD/svg10.dtd">
<svg version="1.0" xmlns="http://www.w3.org/2000/svg"
 width="48.000000pt" height="48.000000pt" viewBox="0 0 48.000000 48.000000">

<g transform="translate(0.000000,48.000000) scale(0.100000,-0.100000)" fill="#8E8E8E" stroke="none"  stroke-width="1">
<path d="M0 385 l0 -225 70 0 70 0 0 -60 c0 -33 3 -60 6 -60 3 0 40 27 81 60
l76 60 168 0 169 0 0 225 0 225 -320 0 -320 0 0 -225z m600 0 l0 -185 -156 0
-156 0 -52 -41 -51 -41 -3 41 -3 41 -70 0 -69 0 0 185 0 185 280 0 280 0 0
-185z"/>
<path d="M100 430 c0 -19 7 -20 220 -20 213 0 220 1 220 20 0 19 -7 20 -220
20 -213 0 -220 -1 -220 -20z"/>
<path d="M100 340 c0 -19 7 -20 220 -20 213 0 220 1 220 20 0 19 -7 20 -220
20 -213 0 -220 -1 -220 -20z"/>
</g>
</svg>
